ply
format ascii 1.0
comment Created by Blender 2.77 (sub 0) - www.blender.org, source file: 'character.blend'
element vertex 190
property float x
property float y
property float z
property float nx
property float ny
property float nz
property float s
property float t
element face 74
property list uchar uint vertex_indices
end_header
0.123438 -0.216714 1.999575 -0.000000 -1.000000 0.000000 0.200067 0.258322
-0.043229 -0.216714 1.999575 -0.000000 -1.000000 0.000000 0.200067 0.225033
-0.043229 -0.216714 1.003481 -0.000000 -1.000000 0.000000 0.399800 0.225033
0.123438 -0.216714 1.003481 -0.000000 -1.000000 0.000000 0.399800 0.258322
0.295211 0.283285 2.998524 0.011049 0.000016 0.999939 0.867846 0.802112
0.295126 -0.216715 2.998541 0.011049 0.000016 0.999939 0.867846 0.702245
0.461857 -0.216715 2.996691 0.011049 0.000016 0.999939 0.901135 0.702245
0.461858 0.283285 2.996691 0.011049 0.000016 0.999939 0.901135 0.802112
0.289718 0.283285 2.498602 0.000000 1.000000 0.000000 0.100200 0.766644
0.295211 0.283285 2.998524 0.000000 1.000000 0.000000 0.000334 0.766644
0.461858 0.283285 2.996691 0.000000 1.000000 0.000000 0.000334 0.799933
0.456677 0.283285 2.498934 0.000000 1.000000 0.000000 0.100200 0.799933
0.456677 0.283285 2.498934 0.999947 0.000077 -0.010329 0.700067 0.901978
0.461858 0.283285 2.996691 0.999947 0.000077 -0.010329 0.600200 0.901978
0.461857 -0.216715 2.996691 0.999947 0.000077 -0.010329 0.600200 0.802112
0.456761 -0.216715 2.499503 0.999947 0.000077 -0.010329 0.700067 0.802112
0.123065 -0.216714 2.500418 -0.000000 -1.000000 -0.000000 0.100200 0.258322
0.128564 -0.216715 3.000357 -0.000000 -1.000000 -0.000000 0.000334 0.258322
-0.038082 -0.216714 3.002190 -0.000000 -1.000000 -0.000000 0.000334 0.225033
-0.043286 -0.216714 2.500003 -0.000000 -1.000000 -0.000000 0.100200 0.225033
-0.038082 0.283286 3.002190 -0.999946 -0.000047 0.010408 0.801268 0.200734
-0.043329 0.283285 2.500337 -0.999946 -0.000047 0.010408 0.901135 0.200734
-0.043286 -0.216714 2.500003 -0.999946 -0.000047 0.010408 0.901135 0.100868
-0.038082 -0.216714 3.002190 -0.999946 -0.000047 0.010408 0.801268 0.100868
0.123438 0.283285 1.999575 0.000000 1.000000 0.000000 0.200067 0.733356
0.290104 0.283285 1.999575 0.000000 1.000000 0.000000 0.200067 0.766644
0.290104 0.283285 1.003481 0.000000 1.000000 0.000000 0.399800 0.766644
0.123438 0.283285 1.003481 0.000000 1.000000 0.000000 0.399800 0.733356
0.123438 0.283285 1.003481 0.000000 0.000000 -1.000000 0.901803 0.802112
0.290104 0.283285 1.003481 0.000000 0.000000 -1.000000 0.935091 0.802112
0.290104 -0.216715 1.003481 0.000000 0.000000 -1.000000 0.935091 0.702245
0.123438 -0.216714 1.003481 0.000000 0.000000 -1.000000 0.901803 0.702245
-0.293229 -0.216714 1.003481 -0.000000 -1.000000 -0.000000 0.399800 0.175100
-0.293229 -0.216714 0.003481 -0.000000 -1.000000 -0.000000 0.599533 0.175100
-0.043229 -0.216714 0.003481 -0.000000 -1.000000 -0.000000 0.599533 0.225033
0.456771 0.283285 1.999575 0.000000 1.000000 0.000000 0.200067 0.799933
0.456771 0.283285 1.003480 0.000000 1.000000 0.000000 0.399800 0.799933
0.706771 0.283285 1.999575 1.000000 -0.000000 0.000000 0.600200 0.100200
0.706771 -0.216715 1.999575 1.000000 -0.000000 0.000000 0.600200 0.000334
0.706771 -0.216715 1.003481 1.000000 -0.000000 0.000000 0.799933 0.000334
0.706771 0.283285 1.003481 1.000000 -0.000000 0.000000 0.799933 0.100200
0.456761 -0.216715 2.499503 0.380635 0.000549 0.924725 0.800601 0.601711
0.923410 -0.216715 2.307114 0.380635 0.000549 0.924725 0.800601 0.651644
0.923391 0.283285 2.307132 0.380635 0.000549 0.924725 0.700734 0.651644
0.456677 0.283285 2.498934 0.380635 0.000549 0.924725 0.700734 0.601711
0.456771 -0.216715 1.999575 -0.000000 -1.000000 0.000000 0.200067 0.324900
0.706771 -0.216715 1.999575 -0.000000 -1.000000 0.000000 0.200067 0.374833
0.923410 -0.216715 2.307114 -0.000000 -1.000000 0.000000 0.100200 0.374833
0.456761 -0.216715 2.499503 -0.000000 -1.000000 0.000000 0.100200 0.324900
0.123438 0.283285 1.003481 1.000000 -0.000000 -0.000000 0.600200 0.601711
0.123438 -0.216714 1.003481 1.000000 -0.000000 -0.000000 0.700067 0.601711
0.123438 -0.216714 0.003481 1.000000 -0.000000 -0.000000 0.700067 0.801444
0.123438 0.283286 0.003481 1.000000 -0.000000 -0.000000 0.600200 0.801444
0.706771 0.283285 1.999575 0.000000 1.000000 0.000000 0.200067 0.849866
0.706771 0.283285 1.003481 0.000000 1.000000 0.000000 0.399800 0.849867
-0.293229 -0.216714 1.999575 -1.000000 0.000000 0.000000 0.700067 0.100868
-0.293229 0.283286 1.999575 -1.000000 0.000000 0.000000 0.600200 0.100868
-0.293229 0.283286 1.003481 -1.000000 0.000000 0.000000 0.600200 0.300601
-0.293229 -0.216714 1.003481 -1.000000 0.000000 0.000000 0.700067 0.300601
-0.043329 0.283285 2.500337 -0.372131 -0.000040 0.928180 0.600200 0.501001
-0.514910 0.283286 2.310938 -0.372131 -0.000040 0.928180 0.650133 0.501001
-0.514224 -0.216714 2.311522 -0.372131 -0.000040 0.928180 0.650134 0.600868
-0.043286 -0.216714 2.500003 -0.372131 -0.000040 0.928180 0.600200 0.600868
-0.514910 0.283286 2.310938 0.000000 1.000000 0.000000 0.100200 0.650133
-0.043329 0.283285 2.500337 0.000000 1.000000 0.000000 0.100200 0.700067
-0.043229 0.283285 1.999575 0.000000 1.000000 0.000000 0.200067 0.700067
-0.293229 0.283286 1.999575 0.000000 1.000000 0.000000 0.200067 0.650133
-0.043229 0.283285 1.003432 0.000000 1.000000 -0.000000 0.399800 0.700067
-0.293229 -0.216714 1.999575 -0.000000 -1.000000 0.000000 0.200067 0.175100
0.461857 -0.216715 2.996691 -0.000000 -1.000000 -0.000000 0.000334 0.324900
0.295126 -0.216715 2.998541 -0.000000 -1.000000 -0.000000 0.000334 0.291611
0.290104 -0.216715 2.499575 -0.000000 -1.000000 -0.000000 0.100200 0.291611
-0.038082 0.283286 3.002190 0.000000 1.000000 -0.000000 0.000334 0.700067
0.128565 0.283285 3.000357 0.000000 1.000000 -0.000000 0.000334 0.733356
0.123066 0.283285 2.500416 0.000000 1.000000 -0.000000 0.100200 0.733356
-0.038082 0.283286 3.002190 0.010998 -0.000000 0.999939 0.801269 0.802112
-0.038082 -0.216714 3.002190 0.010998 -0.000000 0.999939 0.801269 0.702245
0.128564 -0.216715 3.000357 0.010998 -0.000000 0.999939 0.834557 0.702245
0.128565 0.283285 3.000357 0.010998 -0.000000 0.999939 0.834557 0.802112
0.128565 0.283285 3.000357 0.010950 0.000016 0.999940 0.834557 0.802112
0.128564 -0.216715 3.000357 0.010950 0.000016 0.999940 0.834557 0.702245
0.295126 -0.216715 2.998541 0.010950 0.000016 0.999940 0.867846 0.702245
0.295211 0.283285 2.998524 0.010950 0.000016 0.999940 0.867846 0.802112
0.290104 -0.216715 1.999575 -0.000000 -1.000000 0.000000 0.200067 0.291611
0.290104 -0.216715 1.003481 -0.000000 -1.000000 0.000000 0.399800 0.291611
0.456771 -0.216715 1.003481 -0.000000 -1.000000 0.000000 0.399800 0.324900
-0.514224 -0.216714 2.311522 -0.000000 -1.000000 -0.000000 0.100200 0.175100
-0.293229 0.283286 1.003481 0.000000 1.000000 -0.000000 0.399800 0.650134
-0.043229 0.283286 0.003481 0.000000 0.000000 -1.000000 0.875501 0.600868
0.123438 0.283286 0.003481 0.000000 0.000000 -1.000000 0.908790 0.600868
0.123438 -0.216714 0.003481 0.000000 0.000000 -1.000000 0.908790 0.501001
-0.043229 -0.216714 0.003481 -0.000000 0.000000 -1.000000 0.875501 0.501001
-0.293229 -0.216714 0.003481 -0.000000 0.000000 -1.000000 0.825567 0.501001
-0.293229 0.283286 0.003481 -0.000000 0.000000 -1.000000 0.825567 0.600868
0.923391 0.283285 2.307132 0.000000 1.000000 -0.000000 0.100200 0.849866
0.706771 -0.216715 1.003481 -0.000000 -1.000000 0.000000 0.399800 0.374833
0.290104 -0.216714 0.003481 -0.000000 0.000000 -1.000000 0.800601 0.401978
0.290104 0.283286 0.003481 -0.000000 0.000000 -1.000000 0.700734 0.401978
0.456771 0.283286 0.003481 -0.000000 0.000000 -1.000000 0.700734 0.435267
0.706771 0.283285 0.003481 -0.000000 0.000000 -1.000000 0.700734 0.485200
0.706771 -0.216715 0.003481 -0.000000 0.000000 -1.000000 0.800601 0.485200
0.706771 -0.216715 0.003481 0.000000 0.003125 -0.999995 0.800601 0.485200
0.456771 -0.216714 0.003481 0.000000 0.003125 -0.999995 0.800601 0.435267
0.290104 -0.216714 0.003481 0.000000 0.003125 -0.999995 0.800601 0.401978
-0.514910 0.283286 2.310938 -0.960533 -0.000496 0.278164 0.650133 0.501001
-0.653753 0.283286 1.830602 -0.960533 -0.000496 0.278164 0.750000 0.501001
-0.653753 -0.217594 1.830602 -0.960533 -0.000496 0.278164 0.750000 0.601044
-0.514224 -0.216714 2.311522 -0.960533 -0.000496 0.278164 0.650134 0.600868
-0.173417 0.283286 1.691759 0.000000 1.000000 0.000000 0.200067 0.550267
-0.653753 0.283286 1.830602 0.000000 1.000000 0.000000 0.100200 0.550267
-0.293229 -0.216714 1.999575 0.931897 -0.000001 0.362723 0.700734 0.401135
-0.173418 -0.217594 1.691758 0.931897 -0.000001 0.362723 0.800601 0.401311
-0.173417 0.283286 1.691759 0.931897 -0.000001 0.362723 0.800601 0.301268
-0.293229 0.283286 1.999575 0.931897 -0.000001 0.362723 0.700734 0.301268
-0.514224 -0.216714 2.311522 0.001411 -0.999997 0.002195 0.100200 0.175100
-0.653753 -0.217594 1.830602 0.001411 -0.999997 0.002195 0.100200 0.075234
-0.173418 -0.217594 1.691758 0.001411 -0.999997 0.002195 0.200067 0.075234
-0.293229 -0.216714 1.999575 0.001411 -0.999997 0.002195 0.200067 0.175100
0.923410 -0.216715 2.307114 0.940549 0.000012 0.339659 0.800601 0.651644
1.093234 -0.216715 1.836838 0.940549 0.000012 0.339659 0.800601 0.751511
1.093234 0.283285 1.836838 0.940549 0.000012 0.339659 0.700734 0.751511
0.923391 0.283285 2.307132 0.940549 0.000012 0.339659 0.700734 0.651644
0.706771 -0.216715 1.999575 -0.000001 -1.000000 0.000000 0.200067 0.374833
0.622957 -0.216715 1.667014 -0.000001 -1.000000 0.000000 0.200067 0.474700
1.093234 -0.216715 1.836838 -0.000001 -1.000000 0.000000 0.100200 0.474699
0.923410 -0.216715 2.307114 -0.000001 -1.000000 0.000000 0.100200 0.374833
0.706771 0.283285 1.999575 -0.969679 0.000000 0.244384 0.800601 0.852045
0.622957 0.283285 1.667014 -0.969679 0.000000 0.244384 0.800601 0.752178
0.622957 -0.216715 1.667014 -0.969679 0.000000 0.244384 0.700734 0.752178
0.706771 -0.216715 1.999575 -0.969679 0.000000 0.244384 0.700734 0.852045
1.093234 0.283285 1.836838 0.000000 1.000000 -0.000000 0.100200 0.949733
0.622957 0.283285 1.667014 0.000000 1.000000 -0.000000 0.200067 0.949733
0.123438 0.283286 0.003481 0.000000 1.000000 0.000000 0.599533 0.733356
-0.043229 0.283286 0.003481 0.000000 1.000000 0.000000 0.599533 0.700067
0.290104 -0.216715 1.003481 -1.000000 0.000000 0.000000 0.700734 0.300601
0.290104 0.283285 1.003481 -1.000000 0.000000 0.000000 0.800601 0.300601
0.290104 0.283286 0.003481 -1.000000 0.000000 0.000000 0.800601 0.100868
0.290104 -0.216714 0.003481 -1.000000 0.000000 0.000000 0.700734 0.100868
0.123438 -0.216714 0.003481 -0.000000 -1.000000 -0.000000 0.599533 0.258322
0.706771 -0.216715 0.003481 1.000000 -0.000000 -0.000000 0.999666 0.000334
0.706771 0.283285 0.003481 1.000000 -0.000000 -0.000000 0.999666 0.100200
0.456771 0.283286 0.003481 0.000000 1.000000 0.000000 0.599533 0.799933
0.290104 0.283286 0.003481 0.000000 1.000000 0.000000 0.599533 0.766645
0.456771 -0.216714 0.003481 -0.000000 -1.000000 -0.000000 0.599533 0.324900
0.706771 -0.216715 0.003481 -0.000000 -1.000000 -0.000000 0.599533 0.374833
-0.293229 0.283286 0.003481 -1.000000 0.000000 0.000000 0.600200 0.500334
-0.293229 -0.216714 0.003481 -1.000000 0.000000 0.000000 0.700067 0.500334
0.290104 -0.216714 0.003481 -0.000000 -1.000000 -0.000000 0.599533 0.291611
0.706771 0.283285 0.003481 0.000000 1.000000 0.000000 0.599533 0.849867
-0.293229 0.283286 0.003481 0.000000 1.000000 0.000000 0.599533 0.650134
-0.757886 -0.217594 1.470350 -0.277687 0.000000 -0.960672 0.901135 0.802779
-0.757886 0.282406 1.470350 -0.277687 0.000000 -0.960672 0.801269 0.802779
-0.277550 0.282406 1.331507 -0.277687 0.000000 -0.960672 0.801269 0.902646
-0.277550 -0.217594 1.331506 -0.277687 0.000000 -0.960672 0.901135 0.902646
-0.653753 0.283286 1.830602 -0.960672 -0.000000 0.277686 0.750000 0.501001
-0.757886 0.282406 1.470350 -0.960672 -0.000000 0.277686 0.824900 0.501177
-0.757886 -0.217594 1.470350 -0.960672 -0.000000 0.277686 0.824900 0.601044
-0.653753 -0.217594 1.830602 -0.960672 -0.000000 0.277686 0.750000 0.601044
-0.173417 0.283286 1.691759 -0.000651 0.999997 -0.002253 0.200067 0.550267
-0.277550 0.282406 1.331507 -0.000651 0.999997 -0.002253 0.200067 0.475367
-0.757886 0.282406 1.470350 -0.000651 0.999997 -0.002253 0.100200 0.475367
-0.653753 0.283286 1.830602 -0.000651 0.999997 -0.002253 0.100200 0.550267
-0.173418 -0.217594 1.691758 0.960672 -0.000000 -0.277686 0.800601 0.401311
-0.277550 -0.217594 1.331506 0.960672 -0.000000 -0.277686 0.875501 0.401311
-0.277550 0.282406 1.331507 0.960672 -0.000000 -0.277686 0.875501 0.301444
-0.173417 0.283286 1.691759 0.960672 -0.000000 -0.277686 0.800601 0.301268
-0.653753 -0.217594 1.830602 -0.000000 -1.000000 -0.000000 0.100200 0.075234
-0.757886 -0.217594 1.470350 -0.000000 -1.000000 -0.000000 0.100200 0.000334
-0.277550 -0.217594 1.331506 -0.000000 -1.000000 -0.000000 0.200067 0.000334
-0.173418 -0.217594 1.691758 -0.000000 -1.000000 -0.000000 0.200067 0.075234
1.220602 0.283285 1.484130 0.339647 -0.000000 -0.940553 0.801269 0.601711
1.220601 -0.216715 1.484130 0.339647 -0.000000 -0.940553 0.901135 0.601711
0.750325 -0.216715 1.314307 0.339647 -0.000000 -0.940553 0.901135 0.701578
0.750325 0.283285 1.314307 0.339647 -0.000000 -0.940553 0.801269 0.701578
1.093234 -0.216715 1.836838 0.940553 -0.000000 0.339647 0.700734 0.852712
1.220601 -0.216715 1.484130 0.940553 -0.000000 0.339647 0.775634 0.852712
1.220602 0.283285 1.484130 0.940553 -0.000000 0.339647 0.775634 0.952579
1.093234 0.283285 1.836838 0.940553 -0.000000 0.339647 0.700734 0.952579
0.622957 -0.216715 1.667014 -0.000000 -1.000000 0.000000 0.976702 0.200734
0.750325 -0.216715 1.314307 -0.000000 -1.000000 0.000000 0.901802 0.200734
1.220601 -0.216715 1.484130 -0.000000 -1.000000 0.000000 0.901802 0.100868
1.093234 -0.216715 1.836838 -0.000000 -1.000000 0.000000 0.976702 0.100868
0.622957 0.283285 1.667014 -0.940553 0.000000 -0.339647 0.876168 0.401135
0.750325 0.283285 1.314307 -0.940553 0.000000 -0.339647 0.951068 0.401135
0.750325 -0.216715 1.314307 -0.940553 0.000000 -0.339647 0.951068 0.301268
0.622957 -0.216715 1.667014 -0.940553 0.000000 -0.339647 0.876168 0.301268
1.093234 0.283285 1.836838 0.000000 1.000000 -0.000000 0.976702 0.601711
1.220602 0.283285 1.484130 0.000000 1.000000 -0.000000 0.901803 0.601711
0.750325 0.283285 1.314307 0.000000 1.000000 -0.000000 0.901803 0.701578
0.622957 0.283285 1.667014 0.000000 1.000000 -0.000000 0.976702 0.701578
4 0 1 2 3
4 4 5 6 7
4 8 9 10 11
4 12 13 14 15
4 16 17 18 19
4 20 21 22 23
4 24 25 26 27
4 28 29 30 31
4 2 32 33 34
4 25 35 36 26
4 37 38 39 40
4 41 42 43 44
4 45 46 47 48
4 49 50 51 52
4 35 53 54 36
4 55 56 57 58
4 59 60 61 62
4 63 64 65 66
4 65 24 27 67
4 1 68 32 2
4 48 69 70 71
4 71 70 17 16
4 64 72 73 74
4 74 73 9 8
4 75 76 77 78
4 79 80 81 82
4 45 83 84 85
4 83 0 3 84
4 71 16 0 83
4 48 71 83 45
4 19 86 68 1
4 64 74 24 65
4 67 87 66 65
3 88 89 90
3 91 92 93
3 88 90 91
3 88 91 93
4 11 94 53 35
4 85 95 46 45
3 96 97 98
3 98 99 100
3 101 102 103
3 98 100 96
4 8 11 35 25
4 74 8 25 24
4 16 19 1 0
4 104 105 106 107
4 66 108 109 63
4 110 111 112 113
4 114 115 116 117
4 118 119 120 121
4 122 123 124 125
4 126 127 128 129
4 94 130 131 53
4 67 27 132 133
4 134 135 136 137
4 3 2 34 138
4 40 39 139 140
4 26 36 141 142
4 95 85 143 144
4 58 57 145 146
4 85 84 147 143
4 36 54 148 141
4 87 67 133 149
4 150 151 152 153
4 154 155 156 157
4 158 159 160 161
4 162 163 164 165
4 166 167 168 169
4 170 171 172 173
4 174 175 176 177
4 178 179 180 181
4 182 183 184 185
4 186 187 188 189
